<svg xmlns="http://www.w3.org/2000/svg" viewBox="0 0 279.27 266.39"><defs><style>.cls-1{fill:#fbb8cc;}.cls-2{fill:none;stroke:#000;stroke-miterlimit:10;stroke-width:3px;}</style></defs><title>balloon</title><g id="Layer_2" data-name="Layer 2"><g id="Layer_1-2" data-name="Layer 1"><g id="Balloon"><path class="cls-1" d="M136.22,83.72c-7.39,43.74-34,79.65-67.58,79.64S8.44,127.46,1.05,83.72C-6.13,40.89,24.22.76,68.64,0,113.05.76,143.4,40.89,136.22,83.72Z"/><path class="cls-1" d="M60.72,143.06,45.37,169.65a9.14,9.14,0,0,0,7.92,13.71H84a9.14,9.14,0,0,0,7.92-13.71L76.55,143.06A9.14,9.14,0,0,0,60.72,143.06Z"/><path class="cls-2" d="M68.65,183.36c9.41,58.56,20.37,78.86,32.51,81.28,13.57,2.71,20.21-17.42,44-29.78,40.13-20.88,102.68-6.94,133,27"/></g></g></g></svg>